# xmcd CD database file
#
# Track frame offsets:
#	150
#	29843
#	69351
#	101228
#	132712
#	157440
#	169982
#	187863
#	205668
#	224693
#	247535
#	270010
#
# Disc length: 3807 seconds
#
# Revision: 0
# Processed by: cddbd v1.5.2PL0 Copyright (c) Steve Scherf et al.
# Submitted via: CDex 1.51
#
DISCID=b20edd0c
DTITLE=Asher Quinn - O Great Spirit
DYEAR=2011
DGENRE=New Age
TTITLE0=Half Past Ten
TTITLE1=O Great Spirit
TTITLE2=People Get Ready
TTITLE3=We Are One
TTITLE4=Bird Of Paradise
TTITLE5=God's Perfect Circle
TTITLE6=Angels Watching Over You
TTITLE7=Each Holy Child
TTITLE8=Thanksgiving
TTITLE9=All Over The World
TTITLE10=Falling Through Time (Time Lord Mix)
TTITLE11=Blessings On Your Soul (Mariachi Mix)
EXTD=YEAR: 2011
EXTT0=
EXTT1=
EXTT2=
EXTT3=
EXTT4=
EXTT5=
EXTT6=
EXTT7=
EXTT8=
EXTT9=
EXTT10=
EXTT11=
PLAYORDER=
